<?xml version="1.0" encoding="UTF-8" standalone="no"?>
<svg
   xmlns:dc="http://purl.org/dc/elements/1.1/"
   xmlns:cc="http://creativecommons.org/ns#"
   xmlns:rdf="http://www.w3.org/1999/02/22-rdf-syntax-ns#"
   xmlns:svg="http://www.w3.org/2000/svg"
   xmlns="http://www.w3.org/2000/svg"
   id="svg8"
   version="1.1"
   viewBox="0 0 28.174841 13.229167"
   height="50"
   width="106.48759">
  <defs
     id="defs2" />
  <metadata
     id="metadata5">
    <rdf:RDF>
      <cc:Work
         rdf:about="">
        <dc:format>image/svg+xml</dc:format>
        <dc:type
           rdf:resource="http://purl.org/dc/dcmitype/StillImage" />
        <dc:title></dc:title>
      </cc:Work>
    </rdf:RDF>
  </metadata>
  <g
     transform="translate(-12.370912,-283.77082)"
     id="layer1">
    <path
       id="path8189"
       d="m 28.06666,284.0354 -6.08567,6.23261 h -3.102291 v 3.15075 c -1.226102,0.0631 -3.053818,-0.21966 -3.053818,-3.24769 0,-1.2566 1.63849,-4.68733 5.283589,-2.13284 l 2.035879,-2.32671 c -1.525276,-1.19966 -3.050984,-1.68793 -4.456514,-1.65643 -1.405531,0.0315 -2.690885,0.58275 -3.735473,1.46254 -2.208687,1.8602 -3.57403,6.11606 -0.630152,9.25839 1.054685,1.12577 2.219707,1.72266 2.968988,1.95938 h 4.786738 v -6.17655 l 5.941007,6.17655 h 4.17855 l -5.756961,-6.37044 3.82939,-4.12024 3.926337,4.12024 6.084912,-6.32956 h -4.220964 l -1.767001,1.91848 -1.81775,-1.91848 z"
       style="fill:#b10f21;fill-opacity:1;fill-rule:evenodd;stroke:none;stroke-width:0.14656492;stroke-linecap:butt;stroke-linejoin:miter;stroke-opacity:1" />
  </g>
</svg>
