<?xml version="1.0" encoding="utf-8"?>
<!-- Generator: Adobe Illustrator 16.0.0, SVG Export Plug-In . SVG Version: 6.00 Build 0)  -->
<!DOCTYPE svg PUBLIC "-//W3C//DTD SVG 1.1//EN" "http://www.w3.org/Graphics/SVG/1.1/DTD/svg11.dtd" [
	<!ENTITY ns_extend "http://ns.adobe.com/Extensibility/1.0/">
	<!ENTITY ns_ai "http://ns.adobe.com/AdobeIllustrator/10.0/">
	<!ENTITY ns_graphs "http://ns.adobe.com/Graphs/1.0/">
	<!ENTITY ns_vars "http://ns.adobe.com/Variables/1.0/">
	<!ENTITY ns_imrep "http://ns.adobe.com/ImageReplacement/1.0/">
	<!ENTITY ns_sfw "http://ns.adobe.com/SaveForWeb/1.0/">
	<!ENTITY ns_custom "http://ns.adobe.com/GenericCustomNamespace/1.0/">
	<!ENTITY ns_adobe_xpath "http://ns.adobe.com/XPath/1.0/">
]>
<svg version="1.1" id="Ebene_1" xmlns:x="&ns_extend;" xmlns:i="&ns_ai;" xmlns:graph="&ns_graphs;"
	 xmlns="http://www.w3.org/2000/svg" xmlns:xlink="http://www.w3.org/1999/xlink" x="0px" y="0px" width="16px" height="20px"
	 viewBox="0 0 16 20" enable-background="new 0 0 16 20" xml:space="preserve">
<metadata>
	<sfw  xmlns="&ns_sfw;">
		<slices></slices>
		<sliceSourceBounds  height="20" width="16" bottomLeftOrigin="true" x="9" y="-27"></sliceSourceBounds>
	</sfw>
</metadata>
<path fill="#666666" d="M12.333,0H0v2.909v0.704v12.304v0.604V20h16V8V7.875V4L12.333,0z M14,7.875V8v10H1.881v-1.479v-0.604V3.613
	V2.909V2H11v3h3V7.875z"/>
<g>
	<rect y="8" fill="#C13C8A" width="16" height="7"/>
	<g>
		<path fill="#FFFFFF" d="M0.984,13.751l-0.01-0.584c0.255,0.083,0.518,0.124,0.789,0.124c0.115,0,0.215-0.018,0.302-0.053
			s0.156-0.093,0.208-0.172c0.052-0.08,0.078-0.245,0.078-0.494v-3.44H3.33v3.353c0,0.368-0.05,0.637-0.151,0.805
			c-0.1,0.168-0.26,0.303-0.479,0.404s-0.509,0.153-0.87,0.153C1.562,13.847,1.28,13.814,0.984,13.751z"/>
		<path fill="#FFFFFF" d="M4.319,13.829V9.132h1.615c0.469,0,0.799,0.049,0.991,0.147S7.26,9.517,7.356,9.696
			c0.098,0.18,0.146,0.406,0.146,0.68c0,0.524-0.166,0.924-0.496,1.199c-0.332,0.275-0.775,0.413-1.331,0.413H5.278v1.841H4.319z
			 M5.278,11.344h0.184c0.359,0,0.624-0.086,0.792-0.259s0.253-0.375,0.253-0.607c0-0.132-0.026-0.251-0.079-0.357
			C6.373,10.014,6.291,9.929,6.18,9.868C6.068,9.807,5.89,9.775,5.645,9.775H5.278V11.344z"/>
		<path fill="#FFFFFF" d="M12.152,13.718c-0.42,0.107-0.725,0.173-0.916,0.195s-0.395,0.033-0.607,0.033
			c-0.881,0-1.521-0.233-1.922-0.7c-0.398-0.466-0.6-1.058-0.6-1.772c0-0.468,0.088-0.888,0.264-1.262
			c0.176-0.373,0.441-0.666,0.799-0.879c0.355-0.213,0.84-0.319,1.449-0.319c0.514,0,1.023,0.061,1.529,0.182V9.96
			c-0.426-0.146-0.73-0.232-0.918-0.261c-0.186-0.027-0.363-0.041-0.533-0.041c-0.549,0-0.945,0.178-1.188,0.533
			s-0.363,0.786-0.363,1.292c0,0.552,0.143,0.991,0.428,1.317c0.285,0.325,0.688,0.488,1.207,0.488c0.111,0,0.242-0.016,0.393-0.048
			v-1.545h0.979V13.718z"/>
	</g>
</g>
</svg>
