<?xml version="1.0" encoding="utf-8"?>
<!-- Generator: Adobe Illustrator 16.0.0, SVG Export Plug-In . SVG Version: 6.00 Build 0)  -->
<!DOCTYPE svg PUBLIC "-//W3C//DTD SVG 1.1//EN" "http://www.w3.org/Graphics/SVG/1.1/DTD/svg11.dtd" [
	<!ENTITY ns_extend "http://ns.adobe.com/Extensibility/1.0/">
	<!ENTITY ns_ai "http://ns.adobe.com/AdobeIllustrator/10.0/">
	<!ENTITY ns_graphs "http://ns.adobe.com/Graphs/1.0/">
	<!ENTITY ns_vars "http://ns.adobe.com/Variables/1.0/">
	<!ENTITY ns_imrep "http://ns.adobe.com/ImageReplacement/1.0/">
	<!ENTITY ns_sfw "http://ns.adobe.com/SaveForWeb/1.0/">
	<!ENTITY ns_custom "http://ns.adobe.com/GenericCustomNamespace/1.0/">
	<!ENTITY ns_adobe_xpath "http://ns.adobe.com/XPath/1.0/">
]>
<svg version="1.1" id="Ebene_1" xmlns:x="&ns_extend;" xmlns:i="&ns_ai;" xmlns:graph="&ns_graphs;"
	 xmlns="http://www.w3.org/2000/svg" xmlns:xlink="http://www.w3.org/1999/xlink" x="0px" y="0px" width="16px" height="20px"
	 viewBox="0 0 16 20" enable-background="new 0 0 16 20" xml:space="preserve">
<metadata>
	<sfw  xmlns="&ns_sfw;">
		<slices></slices>
		<sliceSourceBounds  height="20" width="16" bottomLeftOrigin="true" x="9" y="-27"></sliceSourceBounds>
	</sfw>
</metadata>
<path fill="#666666" d="M12.333,0H0v2.909v0.704v12.304v0.604V20h16V8V7.875V4L12.333,0z M14,7.875V8v10H1.881v-1.479v-0.604V3.613
	V2.909V2H11v3h3V7.875z"/>
<g>
	<rect y="8" fill="#E43B21" width="16" height="7"/>
	<g>
		<path fill="#FFFFFF" d="M1.107,13.85V9.152h1.615c0.47,0,0.8,0.049,0.991,0.146c0.19,0.1,0.334,0.238,0.432,0.418
			s0.146,0.406,0.146,0.68c0,0.524-0.165,0.924-0.496,1.199s-0.774,0.412-1.331,0.412H2.066v1.842H1.107z M2.066,11.364H2.25
			c0.359,0,0.623-0.087,0.792-0.259c0.168-0.173,0.252-0.375,0.252-0.607c0-0.132-0.025-0.251-0.079-0.357
			c-0.054-0.107-0.136-0.191-0.247-0.252C2.856,9.827,2.679,9.796,2.434,9.796H2.066V11.364z"/>
		<path fill="#FFFFFF" d="M5.094,13.85V9.152h2.022c0.541,0,0.963,0.086,1.264,0.26c0.303,0.174,0.543,0.429,0.721,0.767
			c0.18,0.337,0.268,0.745,0.268,1.224c0,0.467-0.084,0.885-0.254,1.254c-0.172,0.367-0.42,0.658-0.746,0.872
			C8.044,13.742,7.597,13.85,7.03,13.85H5.094z M6.071,13.183h0.73c0.381,0,0.672-0.06,0.874-0.178s0.363-0.319,0.48-0.602
			s0.176-0.597,0.176-0.944c0-0.332-0.057-0.626-0.172-0.882c-0.113-0.257-0.272-0.45-0.474-0.583
			C7.483,9.862,7.142,9.796,6.662,9.796H6.071V13.183z"/>
		<path fill="#FFFFFF" d="M10.248,13.85V9.152h2.928v0.646h-1.949v1.426h1.596v0.647h-1.596v1.978H10.248z"/>
	</g>
</g>
</svg>
