<?xml version="1.0" encoding="utf-8"?>
<!-- Generator: Adobe Illustrator 16.0.0, SVG Export Plug-In . SVG Version: 6.00 Build 0)  -->
<!DOCTYPE svg PUBLIC "-//W3C//DTD SVG 1.1//EN" "http://www.w3.org/Graphics/SVG/1.1/DTD/svg11.dtd" [
	<!ENTITY ns_extend "http://ns.adobe.com/Extensibility/1.0/">
	<!ENTITY ns_ai "http://ns.adobe.com/AdobeIllustrator/10.0/">
	<!ENTITY ns_graphs "http://ns.adobe.com/Graphs/1.0/">
	<!ENTITY ns_vars "http://ns.adobe.com/Variables/1.0/">
	<!ENTITY ns_imrep "http://ns.adobe.com/ImageReplacement/1.0/">
	<!ENTITY ns_sfw "http://ns.adobe.com/SaveForWeb/1.0/">
	<!ENTITY ns_custom "http://ns.adobe.com/GenericCustomNamespace/1.0/">
	<!ENTITY ns_adobe_xpath "http://ns.adobe.com/XPath/1.0/">
]>
<svg version="1.1" id="Ebene_1" xmlns:x="&ns_extend;" xmlns:i="&ns_ai;" xmlns:graph="&ns_graphs;"
	 xmlns="http://www.w3.org/2000/svg" xmlns:xlink="http://www.w3.org/1999/xlink" x="0px" y="0px" width="16px" height="20px"
	 viewBox="0 0 16 20" enable-background="new 0 0 16 20" xml:space="preserve">
<metadata>
	<sfw  xmlns="&ns_sfw;">
		<slices></slices>
		<sliceSourceBounds  height="20" width="16" bottomLeftOrigin="true" x="9" y="-27"></sliceSourceBounds>
	</sfw>
</metadata>
<path fill="#666666" d="M12.333,0H0v2.909v0.704v12.304v0.604V20h16V8V7.875V4L12.333,0z M14,7.875V8v10H1.88v-1.479v-0.604V3.613
	V2.909V2H11v3h3V7.875z"/>
<g>
	<rect x="0" y="8" fill="#CA361B" width="16" height="7"/>
	<g>
		<path fill="#FFFFFF" d="M1.115,13.85V9.152H2.73c0.47,0,0.8,0.049,0.991,0.146c0.19,0.1,0.334,0.238,0.432,0.418
			s0.146,0.406,0.146,0.68c0,0.524-0.165,0.924-0.496,1.199s-0.774,0.412-1.331,0.412H2.074v1.842H1.115z M2.074,11.364h0.184
			c0.359,0,0.623-0.087,0.792-0.259c0.168-0.172,0.252-0.375,0.252-0.607c0-0.131-0.025-0.25-0.079-0.357S3.086,9.949,2.975,9.889
			C2.864,9.827,2.686,9.797,2.441,9.797H2.074V11.364z"/>
		<path fill="#FFFFFF" d="M5.101,13.85V9.152h1.615c0.47,0,0.8,0.049,0.991,0.146c0.19,0.1,0.334,0.238,0.432,0.418
			s0.146,0.406,0.146,0.68c0,0.524-0.165,0.924-0.496,1.199s-0.774,0.412-1.331,0.412H6.06v1.842H5.101z M6.06,11.364h0.184
			c0.359,0,0.623-0.087,0.792-0.259c0.168-0.172,0.252-0.375,0.252-0.607c0-0.131-0.025-0.25-0.079-0.357S7.073,9.949,6.961,9.889
			C6.85,9.827,6.672,9.797,6.427,9.797H6.06V11.364z"/>
		<path fill="#FFFFFF" d="M10.537,13.85V9.799H8.855V9.152h4.342v0.646h-1.683v4.051H10.537z"/>
	</g>
</g>
</svg>
