<?xml version="1.0" encoding="utf-8"?>
<!-- Generator: Adobe Illustrator 16.0.0, SVG Export Plug-In . SVG Version: 6.00 Build 0)  -->
<!DOCTYPE svg PUBLIC "-//W3C//DTD SVG 1.1//EN" "http://www.w3.org/Graphics/SVG/1.1/DTD/svg11.dtd" [
	<!ENTITY ns_extend "http://ns.adobe.com/Extensibility/1.0/">
	<!ENTITY ns_ai "http://ns.adobe.com/AdobeIllustrator/10.0/">
	<!ENTITY ns_graphs "http://ns.adobe.com/Graphs/1.0/">
	<!ENTITY ns_vars "http://ns.adobe.com/Variables/1.0/">
	<!ENTITY ns_imrep "http://ns.adobe.com/ImageReplacement/1.0/">
	<!ENTITY ns_sfw "http://ns.adobe.com/SaveForWeb/1.0/">
	<!ENTITY ns_custom "http://ns.adobe.com/GenericCustomNamespace/1.0/">
	<!ENTITY ns_adobe_xpath "http://ns.adobe.com/XPath/1.0/">
]>
<svg version="1.1" id="Ebene_1" xmlns:x="&ns_extend;" xmlns:i="&ns_ai;" xmlns:graph="&ns_graphs;"
	 xmlns="http://www.w3.org/2000/svg" xmlns:xlink="http://www.w3.org/1999/xlink" x="0px" y="0px" width="16px" height="20px"
	 viewBox="0 0 16 20" enable-background="new 0 0 16 20" xml:space="preserve">
<metadata>
	<sfw  xmlns="&ns_sfw;">
		<slices></slices>
		<sliceSourceBounds  height="20" width="16" bottomLeftOrigin="true" x="9" y="-27"></sliceSourceBounds>
	</sfw>
</metadata>
<path fill="#666666" d="M12.333,0H0v2.909v0.704v12.304v0.604V20h16V8V7.875V4L12.333,0z M14,7.875V8v10H1.881v-1.479v-0.604V3.613
	V2.909V2H11v3h3V7.875z"/>
<g>
	<rect y="8" fill="#2C8EC9" width="16" height="7"/>
	<g>
		<path fill="#FFFFFF" d="M0.989,13.826V9.129h2.002c0.537,0,0.955,0.086,1.253,0.26c0.299,0.174,0.536,0.429,0.714,0.767
			c0.177,0.337,0.266,0.745,0.266,1.224c0,0.467-0.085,0.885-0.254,1.254C4.802,13,4.556,13.291,4.233,13.505
			c-0.323,0.214-0.765,0.321-1.326,0.321H0.989z M1.958,13.159h0.723c0.377,0,0.666-0.06,0.865-0.178
			c0.201-0.118,0.359-0.319,0.475-0.602c0.117-0.282,0.175-0.597,0.175-0.944c0-0.332-0.056-0.626-0.169-0.882
			c-0.113-0.257-0.27-0.45-0.471-0.583C3.356,9.839,3.019,9.772,2.542,9.772H1.958V13.159z"/>
		<path fill="#FFFFFF" d="M8.166,13.943c-0.485,0-0.907-0.102-1.264-0.303c-0.358-0.203-0.631-0.494-0.817-0.873
			c-0.187-0.38-0.28-0.811-0.28-1.291c0-0.478,0.094-0.907,0.28-1.288s0.46-0.673,0.821-0.874c0.359-0.202,0.779-0.304,1.26-0.304
			c0.477,0,0.896,0.102,1.256,0.304c0.361,0.201,0.635,0.493,0.82,0.874c0.188,0.381,0.279,0.811,0.279,1.288
			c0,0.48-0.092,0.911-0.279,1.291c-0.186,0.379-0.457,0.67-0.814,0.873C9.07,13.842,8.648,13.943,8.166,13.943z M8.166,13.299
			c0.447,0,0.781-0.185,1-0.555c0.219-0.369,0.328-0.792,0.328-1.269c0-0.479-0.109-0.901-0.33-1.269
			C8.945,9.839,8.611,9.655,8.166,9.655c-0.45,0-0.784,0.184-1.004,0.552c-0.219,0.367-0.329,0.79-0.329,1.269
			c0,0.477,0.109,0.899,0.328,1.269C7.38,13.114,7.714,13.299,8.166,13.299z"/>
		<path fill="#FFFFFF" d="M15.134,13.642c-0.203,0.09-0.379,0.151-0.529,0.186c-0.152,0.033-0.324,0.062-0.516,0.083
			s-0.381,0.033-0.566,0.033c-0.812,0-1.42-0.232-1.82-0.695s-0.6-1.054-0.6-1.771c0-0.721,0.199-1.312,0.6-1.773
			c0.398-0.461,1.025-0.692,1.881-0.692c0.504,0,1.006,0.061,1.508,0.181v0.766c-0.24-0.085-0.438-0.146-0.592-0.186
			c-0.152-0.039-0.297-0.068-0.434-0.088c-0.139-0.019-0.275-0.028-0.412-0.028c-0.533,0-0.92,0.174-1.162,0.521
			c-0.24,0.347-0.361,0.776-0.361,1.289c0,0.537,0.137,0.972,0.41,1.304c0.273,0.333,0.682,0.499,1.221,0.499
			c0.451,0,0.908-0.115,1.373-0.347V13.642z"/>
	</g>
</g>
</svg>
