<?xml version="1.0" encoding="utf-8"?>
<!-- Generator: Adobe Illustrator 16.0.0, SVG Export Plug-In . SVG Version: 6.00 Build 0)  -->
<!DOCTYPE svg PUBLIC "-//W3C//DTD SVG 1.1//EN" "http://www.w3.org/Graphics/SVG/1.1/DTD/svg11.dtd" [
	<!ENTITY ns_extend "http://ns.adobe.com/Extensibility/1.0/">
	<!ENTITY ns_ai "http://ns.adobe.com/AdobeIllustrator/10.0/">
	<!ENTITY ns_graphs "http://ns.adobe.com/Graphs/1.0/">
	<!ENTITY ns_vars "http://ns.adobe.com/Variables/1.0/">
	<!ENTITY ns_imrep "http://ns.adobe.com/ImageReplacement/1.0/">
	<!ENTITY ns_sfw "http://ns.adobe.com/SaveForWeb/1.0/">
	<!ENTITY ns_custom "http://ns.adobe.com/GenericCustomNamespace/1.0/">
	<!ENTITY ns_adobe_xpath "http://ns.adobe.com/XPath/1.0/">
]>
<svg version="1.1" id="Ebene_1" xmlns:x="&ns_extend;" xmlns:i="&ns_ai;" xmlns:graph="&ns_graphs;"
	 xmlns="http://www.w3.org/2000/svg" xmlns:xlink="http://www.w3.org/1999/xlink" x="0px" y="0px" width="16px" height="20px"
	 viewBox="0 0 16 20" enable-background="new 0 0 16 20" xml:space="preserve">
<metadata>
	<sfw  xmlns="&ns_sfw;">
		<slices></slices>
		<sliceSourceBounds  height="20" width="16" bottomLeftOrigin="true" x="9" y="-27"></sliceSourceBounds>
	</sfw>
</metadata>
<path fill="#666666" d="M12.333,0H0v2.909v0.704v12.304v0.604V20h16V8V7.875V4L12.333,0z M14,7.875V8v10H1.881v-1.479v-0.604V3.613
	V2.909V2H11v3h3V7.875z"/>
<g>
	<rect y="8" fill="#36A14A" width="16" height="7"/>
	<g>
		<path fill="#FFFFFF" d="M0.999,13.85l1.505-2.314L1.065,9.152h1.14l0.954,1.583l1.035-1.583h0.791l-1.443,2.217l1.494,2.48H3.9
			l-1.018-1.686L1.789,13.85H0.999z"/>
		<path fill="#FFFFFF" d="M5.764,13.85V9.152h0.978v4.031h2.092v0.667H5.764z"/>
		<path fill="#FFFFFF" d="M9.401,13.809v-0.807c0.366,0.154,0.641,0.246,0.821,0.275c0.182,0.03,0.349,0.045,0.501,0.045
			c0.274,0,0.479-0.061,0.614-0.184s0.203-0.271,0.203-0.441c0-0.132-0.039-0.25-0.114-0.356c-0.075-0.104-0.261-0.238-0.556-0.403
			l-0.316-0.175c-0.453-0.252-0.76-0.485-0.92-0.698c-0.162-0.215-0.242-0.462-0.242-0.744c0-0.353,0.135-0.656,0.404-0.908
			c0.271-0.252,0.659-0.378,1.166-0.378c0.378,0,0.805,0.054,1.279,0.162v0.752c-0.486-0.18-0.871-0.27-1.157-0.27
			c-0.236,0-0.417,0.051-0.54,0.154c-0.123,0.103-0.186,0.226-0.186,0.37c0,0.109,0.038,0.213,0.113,0.309
			c0.074,0.095,0.258,0.225,0.553,0.391l0.34,0.188c0.518,0.289,0.85,0.541,0.992,0.755c0.141,0.216,0.211,0.458,0.211,0.727
			c0,0.385-0.146,0.714-0.439,0.986c-0.294,0.272-0.762,0.409-1.402,0.409C10.347,13.967,9.905,13.914,9.401,13.809z"/>
	</g>
</g>
</svg>
