<?xml version="1.0" encoding="utf-8"?>
<!-- Generator: Adobe Illustrator 16.0.0, SVG Export Plug-In . SVG Version: 6.00 Build 0)  -->
<!DOCTYPE svg PUBLIC "-//W3C//DTD SVG 1.1//EN" "http://www.w3.org/Graphics/SVG/1.1/DTD/svg11.dtd" [
	<!ENTITY ns_extend "http://ns.adobe.com/Extensibility/1.0/">
	<!ENTITY ns_ai "http://ns.adobe.com/AdobeIllustrator/10.0/">
	<!ENTITY ns_graphs "http://ns.adobe.com/Graphs/1.0/">
	<!ENTITY ns_vars "http://ns.adobe.com/Variables/1.0/">
	<!ENTITY ns_imrep "http://ns.adobe.com/ImageReplacement/1.0/">
	<!ENTITY ns_sfw "http://ns.adobe.com/SaveForWeb/1.0/">
	<!ENTITY ns_custom "http://ns.adobe.com/GenericCustomNamespace/1.0/">
	<!ENTITY ns_adobe_xpath "http://ns.adobe.com/XPath/1.0/">
]>
<svg version="1.1" id="Ebene_1" xmlns:x="&ns_extend;" xmlns:i="&ns_ai;" xmlns:graph="&ns_graphs;"
	 xmlns="http://www.w3.org/2000/svg" xmlns:xlink="http://www.w3.org/1999/xlink" x="0px" y="0px" width="16px" height="20px"
	 viewBox="0 0 16 20" enable-background="new 0 0 16 20" xml:space="preserve">
<metadata>
	<sfw  xmlns="&ns_sfw;">
		<slices></slices>
		<sliceSourceBounds  height="20" width="16" bottomLeftOrigin="true" x="9" y="-27"></sliceSourceBounds>
	</sfw>
</metadata>
<path fill="#666666" d="M12.333,0H0v2.909v0.704v12.304v0.604V20h16V8V7.875V4L12.333,0z M14,7.875V8v10H1.88v-1.479v-0.604V3.613
	V2.909V2H11v3h3V7.875z"/>
<g>
	<rect x="0" y="8" fill="#00747B" width="16" height="7"/>
	<g>
		<path fill="#FFFFFF" d="M0.998,13.85v-0.667l2.335-3.384H1.13V9.152h3.339v0.646l-2.335,3.384h2.335v0.667H0.998z"/>
		<path fill="#FFFFFF" d="M5.258,13.85V9.152h0.979v4.697H5.258z"/>
		<path fill="#FFFFFF" d="M7.09,13.85V9.152h1.615c0.469,0,0.799,0.049,0.99,0.146c0.191,0.1,0.334,0.238,0.432,0.418
			s0.146,0.406,0.146,0.68c0,0.523-0.166,0.924-0.496,1.199c-0.332,0.275-0.775,0.412-1.332,0.412H8.049v1.842H7.09z M8.049,11.363
			h0.184c0.359,0,0.623-0.086,0.791-0.258c0.168-0.173,0.252-0.375,0.252-0.607c0-0.132-0.025-0.251-0.078-0.357
			C9.143,10.033,9.061,9.949,8.95,9.889C8.838,9.826,8.661,9.796,8.417,9.796H8.049V11.363z"/>
	</g>
</g>
</svg>
